<svg width="143" height="188" viewBox="0 0 143 188" fill="none" xmlns="http://www.w3.org/2000/svg">
<g id="Figure6">
<path id="Vector 38" d="M83.8658 179.869C88.2139 174.73 90.6186 163.226 90.2892 158.12C84.7552 151.4 75.466 157.634 72.5014 161.587C72.5014 168.702 74.4778 175.752 75.466 178.387C78.233 184.316 82.2188 181.846 83.8658 179.869Z" fill="#2C2626" stroke="black" stroke-width="5"/>
<g id="Group 23">
<path id="Polygon 8" d="M36.5505 149.839L42.2131 156.309L27.6533 158.736L36.5505 149.839Z" fill="#2C2626" stroke="black" stroke-width="5"/>
<path id="Ellipse 30" d="M1.44346 83.0097C-3.73598 93.5391 5.67753 110.468 19.2315 119.094C26.9716 124.021 50.0646 128.416 53.6317 119.094C57.1988 109.772 38.5752 86.6307 28.1891 80.5481C21.8341 76.8262 7.76281 70.163 1.44346 83.0097Z" fill="#CDF0F6" fill-opacity="0.65"/>
<path id="Ellipse 31" d="M141.557 80.8956C146.736 91.425 137.322 108.354 123.769 116.98C116.028 121.906 92.9354 126.302 89.3683 116.98C85.8012 107.658 104.425 84.5166 114.811 78.434C121.166 74.7121 135.237 68.0489 141.557 80.8956Z" fill="#CDF0F6" fill-opacity="0.65"/>
<g id="Group 21">
<path id="Vector 27" d="M38.7964 56.0987C28.519 83.3734 41.761 99.086 49.6667 103.533C71.0121 116.182 94.4657 110.78 103.524 106.498C122.103 98.9872 124.174 85.5636 121.511 77.5747C120.523 74.6101 119.535 73.6219 119.535 67.6926C118.349 44.3708 101.054 35.6757 92.654 33.3698C60.6359 23.0924 43.408 44.2402 38.7964 56.0987Z" fill="#FDE68A" stroke="black" stroke-width="5"/>
<ellipse id="Ellipse 29" cx="69.0437" cy="75.104" rx="7.4116" ry="9.88213" fill="#281E1F"/>
<ellipse id="Ellipse 30_2" cx="104.125" cy="75.104" rx="6.91749" ry="9.88213" fill="#281E1F"/>
<circle id="Ellipse 31_2" cx="71.0199" cy="70.657" r="2.47053" fill="white"/>
<circle id="Ellipse 32" cx="105.608" cy="70.657" r="2.47053" fill="white"/>
<path id="Vector 29" d="M81.3962 85.9747C83.8668 88.9393 89.3019 93.0898 95.2312 85.9747" stroke="black" stroke-width="5.00196" stroke-linecap="round"/>
<path id="Vector 30" d="M53.8187 97.8334C29.6075 78.5632 47.4479 48.8914 57.4947 38.5151C44.8456 44.8397 38.0216 59.6224 36.5393 67.1987C33.0663 99.3157 57.2775 108.374 70.1242 109.692C97.0036 113.249 111.235 101.131 115.518 95.0373C87.057 114.011 64.6748 105.245 53.8187 97.8334Z" fill="#FBB800"/>
<path id="Ellipse 33" d="M66.573 87.9512C66.573 90.1343 64.2671 91.904 59.6555 91.904C55.8351 91.904 52.738 90.5864 52.738 87.9512C52.738 85.3159 55.8351 83.9983 59.6555 83.9983C63.4759 83.9983 66.573 85.3159 66.573 87.9512Z" fill="#FA9C90"/>
<path id="Ellipse 34" d="M119.361 86.9855C119.361 89.1686 117.22 90.9383 112.937 90.9383C109.39 90.9383 106.514 89.6207 106.514 86.9855C106.514 84.3502 109.39 83.0326 112.937 83.0326C116.485 83.0326 119.361 84.3502 119.361 86.9855Z" fill="#FA9C90"/>
<path id="Vector 31" d="M69.136 37.9699C66.7643 41.1322 64.8537 39.2875 64.1949 37.9699L63.7008 25.1231C63.7008 12.7704 68.6419 7.90571 70.6183 5.35883C76.0535 -0.570451 78.8534 -0.405749 80.5004 0.417762C88.0109 5.55647 81.9828 11.7822 76.0535 15.7351C68.1478 21.6644 68.3125 31.3818 69.136 37.9699Z" fill="black"/>
<path id="Vector 32" d="M94.0576 38.4963C90.5412 40.3019 89.6305 37.8072 89.6147 36.3341L94.792 24.5664C100.197 13.4592 106.214 11.2585 109.661 9.82192C117.143 6.86884 119.588 8.24216 120.709 9.70336C125.213 17.6105 117.069 20.5707 110.007 21.5303C100.304 23.4024 96.2 32.2121 94.0576 38.4963Z" fill="black"/>
</g>
<path id="Vector 43" d="M79.3142 164.532C109.049 150.107 103.525 132.415 100.561 110.181C78.7854 114.972 54.8488 108.238 49.8465 104.624C32.5856 118.211 32.3788 136.549 34.3505 145.756C43.5143 171.583 68.4506 168.406 79.3142 164.532Z" fill="#2C2626" stroke="black" stroke-width="5"/>
<path id="Vector 35" d="M100.172 118.586C78.6091 132.779 53.8408 118.918 44.3379 112.656C42.7829 114.222 39.0998 120.57 38.4086 123.527C65.3622 142.312 91.1632 138.014 100.666 131.926C101.654 127.974 101.209 120.673 100.172 118.586Z" fill="#FDE68A"/>
<path id="Vector 36" d="M96.9974 145.936C71.3998 156.964 47.2963 148.467 36.802 133.931C36.6113 133.667 36.2317 133.657 36.0989 133.954C35.1563 136.066 35.5186 141.297 35.9259 143.233C35.9343 143.273 35.9477 143.31 35.966 143.347C45.1711 161.78 78.0081 161.443 88.6147 155.857C89.4313 155.427 90.1251 154.822 90.774 154.165C93.5161 151.392 96.2242 148.52 97.5515 146.536C97.8065 146.155 97.4184 145.754 96.9974 145.936Z" fill="#FDE68A"/>
<path id="Vector 63" d="M91.1766 121.706C82.7151 123.821 74.5841 119.493 70.9645 116.618C70.5211 116.266 70.0051 116.012 69.4441 115.935C62.4594 114.977 52.3024 115.688 61.8358 125.656C70.1898 134.391 86.0508 133.621 90.8766 133.157C91.7836 133.069 92.5733 132.536 92.9906 131.726C94.6961 128.415 98.489 119.877 91.1766 121.706Z" fill="#2C2626" stroke="black" stroke-width="5"/>
<g id="Group 22">
<path id="Rectangle 211" d="M103.693 107.727H130.319C131.757 107.727 132.726 109.201 132.155 110.521L119.83 139.073C119.509 139.817 118.77 140.294 117.959 140.28L91.7851 139.84C90.3682 139.815 89.4245 138.367 89.9758 137.061L101.851 108.95C102.163 108.209 102.889 107.728 103.693 107.727Z" fill="#6C8B9D" stroke="black" stroke-width="2"/>
<circle id="Ellipse 41" cx="106.781" cy="114.293" r="1.08086" fill="black"/>
<path id="Vector 64" d="M91.6488 138.072L103.282 110.046C103.437 109.673 103.802 109.429 104.206 109.429H130.56" stroke="#ABC6CE" stroke-width="1.50059" stroke-linecap="round"/>
</g>
<path id="Ellipse 40" d="M126.972 122.267C128.736 122.924 130.172 125.616 128.943 128.916C127.715 132.217 124.869 133.314 123.105 132.658C121.341 132.002 119.905 129.31 121.133 126.01C122.362 122.709 125.208 121.611 126.972 122.267Z" fill="#2C2626" stroke="black" stroke-width="5"/>
</g>
<path id="Vector 37" d="M52.3306 182.828C47.9824 177.689 47.5542 166.193 47.8836 161.087C53.4176 154.367 60.7304 160.593 63.695 164.546C63.695 171.661 61.7186 178.71 60.7303 181.346C57.9634 187.275 53.9776 184.804 52.3306 182.828Z" fill="#2C2626" stroke="black" stroke-width="5"/>
</g>
</svg>
