<svg width="162" height="186" viewBox="0 0 162 186" fill="none" xmlns="http://www.w3.org/2000/svg">
<path d="M32.9687 79.8011C30.0659 78.0822 25.6967 75.8774 21.5055 75.4412C19.4526 75.2276 17.5736 75.4537 15.9517 76.2525C14.3595 77.0366 12.8028 78.4754 11.5383 81.0745C9.61919 85.0194 10.2543 90.5894 13.2597 96.5117C16.2253 102.355 21.2709 108.039 27.2132 111.863C30.3656 113.892 37.1117 116.01 43.545 116.508C46.7343 116.754 49.6255 116.582 51.821 115.928C54.0146 115.274 55.157 114.264 55.6093 113.069C56.0966 111.781 55.9357 109.529 54.6778 106.296C53.4667 103.184 51.4264 99.6403 48.9294 96.106C43.8928 88.977 37.3768 82.4114 32.9687 79.8011Z" fill="#CDF0F6" fill-opacity="0.65" stroke="#28899A" stroke-width="5"/>
<ellipse cx="82.9921" cy="181.824" rx="31.6435" ry="4.01822" fill="#C7C9C8"/>
<path d="M129.031 80.7325C131.934 79.0136 136.303 76.8088 140.495 76.3726C142.547 76.159 144.426 76.3851 146.048 77.1839C147.641 77.968 149.197 79.4068 150.462 82.0059C152.381 85.9508 151.746 91.5208 148.74 97.4431C145.775 103.287 140.729 108.97 134.787 112.794C131.634 114.823 124.888 116.942 118.455 117.439C115.266 117.686 112.374 117.514 110.179 116.859C107.985 116.205 106.843 115.196 106.391 114C105.903 112.712 106.064 110.461 107.322 107.228C108.533 104.115 110.574 100.572 113.071 97.0374C118.107 89.9084 124.623 83.3428 129.031 80.7325Z" fill="#CDF0F6" fill-opacity="0.65" stroke="#28899A" stroke-width="5"/>
<path d="M71.8785 180.772C63.1275 185.45 59.1171 169.504 57.8308 157.814C57.5994 155.711 59.6337 154.14 61.6444 154.799L75.9472 159.48C77.2222 159.897 78.0747 161.113 77.9593 162.45C77.2229 170.984 74.4288 177.289 72.7647 179.942C72.5484 180.287 72.2375 180.58 71.8785 180.772Z" fill="#2C2626" stroke="black" stroke-width="2"/>
<path d="M93.6162 180.772C102.367 185.45 106.378 169.504 107.664 157.814C107.895 155.711 105.861 154.14 103.85 154.799L89.5475 159.48C88.2724 159.897 87.42 161.113 87.5353 162.45C88.2718 170.984 91.0659 177.289 92.7299 179.942C92.9462 180.287 93.2571 180.58 93.6162 180.772Z" fill="#2C2626" stroke="black" stroke-width="2"/>
<path d="M130.678 100.284C125.477 104.155 117.215 104.374 112.164 103.83C110.919 103.696 109.678 104.253 109.039 105.331L107.425 108.05C107.15 108.513 107.005 109.042 107.005 109.581V116.661C107.005 117.6 107.445 118.485 108.193 119.052L110.608 120.883C110.955 121.146 111.353 121.334 111.782 121.412C118.479 122.626 132.963 121.755 140.554 111.657C142.057 111.893 143.611 111.845 144.957 111.688C146.554 111.502 147.501 109.92 147.149 108.352L143.326 91.3443C143.201 90.7881 143.249 90.2104 143.394 89.6592C144.419 85.7844 142.665 82.7326 141.374 81.3916C141.179 81.1894 140.935 81.0318 140.677 80.9216C135.246 78.6021 134.488 84.0263 134.951 88.6864C135.109 90.2747 134.04 91.8319 133.133 93.1524L133.107 93.1908C132.182 94.5381 131.834 96.4093 131.763 97.93C131.722 98.837 131.406 99.7424 130.678 100.284Z" fill="#2C2626"/>
<path d="M135.393 108.758C137.514 111.822 141.804 112.056 144.957 111.688C146.554 111.502 147.501 109.92 147.149 108.352L143.326 91.3443C143.201 90.7881 143.249 90.2104 143.394 89.6592C144.419 85.7844 142.665 82.7326 141.374 81.3916C141.179 81.1894 140.935 81.0318 140.677 80.9216C135.246 78.6021 134.488 84.0263 134.951 88.6864C135.111 90.2901 134.019 91.8621 133.107 93.1908C132.182 94.5381 131.834 96.4093 131.763 97.93C131.722 98.837 131.406 99.7424 130.678 100.284C125.477 104.155 117.215 104.374 112.164 103.83C110.919 103.696 109.678 104.253 109.039 105.331L107.425 108.05C107.15 108.513 107.005 109.042 107.005 109.581V116.661C107.005 117.6 107.445 118.485 108.193 119.052L110.608 120.883C110.955 121.146 111.353 121.334 111.782 121.412C118.479 122.626 132.963 121.755 140.554 111.657" stroke="black" stroke-width="5"/>
<mask id="path-8-inside-1_391_2661" fill="white">
<path d="M53.8831 97.4096C55.7419 95.739 58.5407 96.2022 59.8508 98.1108H108.554L113.715 113.246C118.67 119.925 119.737 130.988 119.909 135.685C119.909 156.148 97.7152 168.04 78.6184 165.953C64.1743 163.449 51.7119 157.346 47.2961 144.539C45.4522 146.638 42.9645 147.177 41.4407 147.148C41.0047 147.139 40.6025 147.024 40.2688 146.88C37.9568 145.885 36.4614 144.693 35.6799 143.332C34.8763 141.934 34.9067 140.496 35.3616 139.225C35.6978 138.286 35.8438 137.157 35.7141 136.125C35.5839 135.09 35.1932 134.259 34.5686 133.753C30.4908 130.454 28.4187 126.414 27.762 124.172C27.7014 123.965 27.6645 123.759 27.6448 123.562C26.8915 116.055 30.9081 110.304 36.1096 106.206C40.8764 102.451 46.7484 99.9867 51.2639 98.6909V98.1108H53.054C53.1565 98.0473 53.2531 97.9759 53.342 97.8959L53.8831 97.4096ZM48.1965 119.723C46.8386 120.033 45.9584 120.279 45.4143 120.46C45.9905 121.828 46.4877 123.073 46.9231 124.214C47.2753 122.709 47.6998 121.188 48.1965 119.723Z"/>
</mask>
<path d="M53.8831 97.4096C55.7419 95.739 58.5407 96.2022 59.8508 98.1108H108.554L113.715 113.246C118.67 119.925 119.737 130.988 119.909 135.685C119.909 156.148 97.7152 168.04 78.6184 165.953C64.1743 163.449 51.7119 157.346 47.2961 144.539C45.4522 146.638 42.9645 147.177 41.4407 147.148C41.0047 147.139 40.6025 147.024 40.2688 146.88C37.9568 145.885 36.4614 144.693 35.6799 143.332C34.8763 141.934 34.9067 140.496 35.3616 139.225C35.6978 138.286 35.8438 137.157 35.7141 136.125C35.5839 135.09 35.1932 134.259 34.5686 133.753C30.4908 130.454 28.4187 126.414 27.762 124.172C27.7014 123.965 27.6645 123.759 27.6448 123.562C26.8915 116.055 30.9081 110.304 36.1096 106.206C40.8764 102.451 46.7484 99.9867 51.2639 98.6909V98.1108H53.054C53.1565 98.0473 53.2531 97.9759 53.342 97.8959L53.8831 97.4096ZM48.1965 119.723C46.8386 120.033 45.9584 120.279 45.4143 120.46C45.9905 121.828 46.4877 123.073 46.9231 124.214C47.2753 122.709 47.6998 121.188 48.1965 119.723Z" fill="#2C2626"/>
<path d="M53.8831 97.4096L50.5408 93.6908L50.5405 93.6911L53.8831 97.4096ZM59.8508 98.1108L55.7285 100.94L57.2183 103.111H59.8508V98.1108ZM108.554 98.1108L113.286 96.497L112.132 93.1108H108.554V98.1108ZM113.715 113.246L108.983 114.859L109.234 115.598L109.699 116.224L113.715 113.246ZM119.909 135.685H124.909V135.593L124.906 135.502L119.909 135.685ZM78.6184 165.953L77.7645 170.879L77.9191 170.906L78.0751 170.923L78.6184 165.953ZM47.2961 144.539L52.023 142.91L49.2187 134.777L43.5401 141.239L47.2961 144.539ZM41.4407 147.148L41.344 152.147L41.3445 152.147L41.4407 147.148ZM40.2688 146.88L38.2911 151.473L38.2917 151.473L40.2688 146.88ZM35.6799 143.332L31.3444 145.823L31.3445 145.823L35.6799 143.332ZM35.3616 139.225L30.6541 137.54L30.654 137.54L35.3616 139.225ZM35.7141 136.125L40.675 135.501L40.675 135.501L35.7141 136.125ZM34.5686 133.753L37.7144 129.867L37.7138 129.866L34.5686 133.753ZM27.762 124.172L22.9636 125.578L22.9636 125.578L27.762 124.172ZM27.6448 123.562L22.6698 124.061L22.6698 124.061L27.6448 123.562ZM36.1096 106.206L33.0154 102.279L33.0154 102.279L36.1096 106.206ZM51.2639 98.6909L52.6431 103.497L56.2639 102.458V98.6909H51.2639ZM51.2639 98.1108V93.1108H46.2639V98.1108H51.2639ZM53.054 98.1108V103.111H54.4762L55.6855 102.362L53.054 98.1108ZM53.342 97.8959L56.684 101.615L56.6846 101.614L53.342 97.8959ZM48.1965 119.723L52.9319 121.328L55.8026 112.859L47.0844 114.848L48.1965 119.723ZM45.4143 120.46L43.83 115.718L38.7118 117.428L40.8063 122.401L45.4143 120.46ZM46.9231 124.214L42.2517 125.997L48.0727 141.25L51.7916 125.353L46.9231 124.214ZM53.8831 97.4096L57.2253 101.128C57.0058 101.326 56.686 101.411 56.4144 101.374C56.1776 101.343 55.9146 101.211 55.7285 100.94L59.8508 98.1108L63.9731 95.2812C61.0316 90.9958 54.7466 89.9109 50.5408 93.6908L53.8831 97.4096ZM59.8508 98.1108V103.111H108.554V98.1108V93.1108H59.8508V98.1108ZM108.554 98.1108L103.822 99.7246L108.983 114.859L113.715 113.246L118.447 111.632L113.286 96.497L108.554 98.1108ZM113.715 113.246L109.699 116.224C111.562 118.735 112.874 122.37 113.719 126.268C114.547 130.086 114.834 133.717 114.913 135.868L119.909 135.685L124.906 135.502C124.813 132.956 124.48 128.708 123.492 124.15C122.522 119.672 120.823 114.436 117.731 110.267L113.715 113.246ZM119.909 135.685H114.909C114.909 143.89 110.52 150.554 103.659 155.11C96.7201 159.718 87.5729 161.902 79.1617 160.982L78.6184 165.953L78.0751 170.923C88.7607 172.091 100.259 169.372 109.191 163.441C118.201 157.457 124.909 147.943 124.909 135.685H119.909ZM78.6184 165.953L79.4724 161.026C65.5938 158.62 55.5266 153.071 52.023 142.91L47.2961 144.539L42.5692 146.169C47.8971 161.621 62.7548 168.277 77.7645 170.879L78.6184 165.953ZM47.2961 144.539L43.5401 141.239C43.2293 141.593 42.8661 141.819 42.4835 141.963C42.0721 142.119 41.7047 142.152 41.5368 142.149L41.4407 147.148L41.3445 152.147C43.9155 152.196 47.9878 151.327 51.0522 147.84L47.2961 144.539ZM41.4407 147.148L41.5374 142.149C41.9122 142.156 42.1565 142.249 42.2459 142.288L40.2688 146.88L38.2917 151.473C39.0485 151.799 40.0971 152.123 41.344 152.147L41.4407 147.148ZM40.2688 146.88L42.2465 142.288C40.4577 141.518 40.0502 140.902 40.0154 140.842L35.6799 143.332L31.3445 145.823C32.8726 148.483 35.456 150.252 38.2911 151.473L40.2688 146.88ZM35.6799 143.332L40.0154 140.842C40.0107 140.834 40.0108 140.833 40.0135 140.839C40.0162 140.845 40.0205 140.856 40.025 140.872C40.0348 140.905 40.0404 140.94 40.0421 140.971C40.0453 141.034 40.0301 141.019 40.0691 140.91L35.3616 139.225L30.654 137.54C29.8006 139.925 29.6813 142.928 31.3444 145.823L35.6799 143.332ZM35.3616 139.225L40.069 140.91C40.651 139.285 40.9095 137.365 40.675 135.501L35.7141 136.125L30.7532 136.749C30.7782 136.948 30.7446 137.287 30.6541 137.54L35.3616 139.225ZM35.7141 136.125L40.675 135.501C40.442 133.649 39.6553 131.438 37.7144 129.867L34.5686 133.753L31.4228 137.64C31.0802 137.362 30.9003 137.074 30.8183 136.903C30.74 136.739 30.7434 136.671 30.7532 136.75L35.7141 136.125ZM34.5686 133.753L37.7138 129.866C34.4802 127.25 32.9512 124.101 32.5603 122.767L27.762 124.172L22.9636 125.578C23.8862 128.727 26.5013 133.657 31.4234 137.64L34.5686 133.753ZM27.762 124.172L32.5604 122.767C32.5976 122.894 32.613 122.995 32.6198 123.063L27.6448 123.562L22.6698 124.061C22.7161 124.523 22.8052 125.037 22.9636 125.578L27.762 124.172ZM27.6448 123.562L32.6198 123.063C32.102 117.902 34.7391 113.651 39.2038 110.134L36.1096 106.206L33.0154 102.279C27.077 106.957 21.6811 114.208 22.6698 124.061L27.6448 123.562ZM36.1096 106.206L39.2038 110.134C43.3125 106.897 48.5385 104.675 52.6431 103.497L51.2639 98.6909L49.8847 93.8848C44.9584 95.2986 38.4403 98.0052 33.0154 102.279L36.1096 106.206ZM51.2639 98.6909H56.2639V98.1108H51.2639H46.2639V98.6909H51.2639ZM51.2639 98.1108V103.111H53.054V98.1108V93.1108H51.2639V98.1108ZM53.054 98.1108L55.6855 102.362C56.0208 102.155 56.3581 101.908 56.684 101.615L53.342 97.8959L50.0001 94.1769C50.1481 94.0439 50.2923 93.9398 50.4224 93.8593L53.054 98.1108ZM53.342 97.8959L56.6846 101.614L57.2257 101.128L53.8831 97.4096L50.5405 93.6911L49.9994 94.1775L53.342 97.8959ZM48.1965 119.723L47.0844 114.848C45.6477 115.176 44.5918 115.464 43.83 115.718L45.4143 120.46L46.9987 125.203C47.3251 125.094 48.0296 124.89 49.3087 124.598L48.1965 119.723ZM45.4143 120.46L40.8063 122.401C41.3605 123.717 41.8367 124.909 42.2517 125.997L46.9231 124.214L51.5945 122.432C51.1388 121.238 50.6204 119.94 50.0223 118.52L45.4143 120.46ZM46.9231 124.214L51.7916 125.353C52.1118 123.985 52.4934 122.622 52.9319 121.328L48.1965 119.723L43.4612 118.118C42.9063 119.755 42.4388 121.433 42.0545 123.075L46.9231 124.214Z" fill="black" mask="url(#path-8-inside-1_391_2661)"/>
<path d="M45.4184 57.4464C35.9858 82.8253 48.1393 97.4458 55.3952 101.584C74.986 113.354 96.5116 108.327 104.826 104.342C121.877 97.3538 122.427 82.4599 121.973 76.0233C120.466 54.6268 112.252 43.5009 98.7474 37.4053C69.8442 24.3587 49.651 46.4121 45.4184 57.4464Z" fill="#FBB800" stroke="black" stroke-width="5"/>
<path d="M108.546 96.4263C127.709 80.9494 114.231 50.6207 103.392 41.749C114.231 48.5333 118.154 59.9099 119.392 67.8423C120.769 73.0609 121.973 85.69 115.779 94.4573C113.715 97.4146 106.386 103.955 93.586 106.46C72.4246 110.113 50.7471 103.329 45.0697 85.0638C68.8117 116.376 99.954 102.379 108.546 96.4263Z" fill="#E6A800"/>
<path d="M64.6826 85.0637C64.6826 87.6577 62.102 89.7605 56.9407 89.7605C52.6649 89.7605 49.1987 88.1949 49.1987 85.0637C49.1987 81.9325 52.6649 80.3669 56.9407 80.3669C61.2164 80.3669 64.6826 81.9325 64.6826 85.0637Z" fill="#FA9C90"/>
<path d="M116.296 84.02C116.296 86.614 113.715 88.7168 108.554 88.7168C104.278 88.7168 100.812 87.1512 100.812 84.02C100.812 80.8888 104.278 79.3232 108.554 79.3232C112.83 79.3232 116.296 80.8888 116.296 84.02Z" fill="#FA9C90"/>
<path d="M94.3688 40.3521C91.201 43.0299 89.6994 40.6714 89.3446 39.1574L91.9142 25.8298C94.8681 13.1297 101.056 9.32278 103.674 7.18213C110.619 2.40021 113.427 3.24654 114.904 4.49144C121.312 11.5906 113.694 16.534 106.72 19.1644C97.2631 23.349 95.1069 33.3796 94.3688 40.3521Z" fill="black"/>
<path d="M67.2025 40.3521C70.3703 43.0299 71.8719 40.6714 72.2267 39.1574L69.6571 25.8298C66.7032 13.1297 60.5157 9.32278 57.8969 7.18213C50.9524 2.40021 48.1447 3.24654 46.6669 4.49144C40.2589 11.5906 47.8772 16.534 54.8515 19.1644C64.3082 23.349 66.4644 33.3796 67.2025 40.3521Z" fill="black"/>
<ellipse cx="65.1989" cy="70.4515" rx="6.70969" ry="8.8717" fill="#281E1F"/>
<ellipse cx="100.296" cy="70.4515" rx="6.70969" ry="8.8717" fill="#281E1F"/>
<ellipse cx="67.2638" cy="67.3205" rx="2.58065" ry="2.60932" fill="white"/>
<ellipse cx="98.231" cy="67.3205" rx="2.58065" ry="2.60932" fill="white"/>
<path d="M75.0054 82.4546C77.586 85.5858 83.2634 89.9694 89.457 82.4546" stroke="black" stroke-width="5" stroke-linecap="round"/>
<path d="M154.446 100.746C154.699 89.862 148.117 88.5451 143.616 91.4011C143.031 91.7722 141.333 93.4429 140.816 95.4187C140.761 95.6286 140.699 95.8376 140.618 96.039C138.573 101.121 139.766 106.891 142.709 109.906C142.935 110.138 143.219 110.317 143.518 110.44C153.27 114.442 154.878 105.698 154.446 100.746Z" fill="#2C2626" stroke="black" stroke-width="5"/>
<path d="M109.155 115.223C87.1191 125.23 66.4074 120.571 55.8635 115.658C54.0372 114.807 51.7872 115.737 51.2838 117.688L49.7588 123.599C49.4267 124.886 49.9803 126.248 51.1502 126.88C78.8404 141.823 115.779 128.318 115.779 125.769C115.779 124.24 114.486 120.188 113.321 116.9C112.725 115.218 110.779 114.485 109.155 115.223Z" fill="#FBB800" stroke="black" stroke-width="2"/>
<path d="M105.773 143.406C85.3377 153.589 69.7068 149.363 59.2111 143.822C57.4973 142.917 55.3388 143.718 54.7452 145.563L54.048 147.73C53.6252 149.044 54.1557 150.488 55.3585 151.165C82.2188 166.286 109.676 153.517 110.102 148.731C110.19 147.746 110.048 146.36 109.652 144.876C109.212 143.226 107.302 142.645 105.773 143.406Z" fill="#FBB800" stroke="black" stroke-width="2"/>
<path d="M102.614 136.089C89.866 138.587 71.9607 137.398 61.916 136.208C59.9348 135.973 58.2326 137.656 58.4934 139.634L58.7628 141.677C58.9112 142.802 59.6767 143.755 60.7658 144.075C74.2269 148.023 93.9499 146.319 104.253 144.052C105.581 143.76 106.489 142.566 106.489 141.207V139.152C106.489 137.155 104.573 135.705 102.614 136.089Z" fill="#C28858" stroke="black" stroke-width="2"/>
<path d="M46.78 151.648C44.5589 149.365 44.9618 143.244 45.4614 140.381L46.4639 136.665C46.7918 135.449 47.8436 134.568 49.0976 134.457L57.1521 133.749C58.1945 133.658 59.1862 134.215 59.6501 135.153C59.8231 135.503 59.9131 135.888 59.9131 136.278V148.464C59.9131 148.981 59.7868 149.498 59.4962 149.926C56.1852 154.802 50.2129 153.46 47.2888 152.006C47.1018 151.913 46.9257 151.798 46.78 151.648Z" fill="#C28858" stroke="black" stroke-width="3"/>
<path d="M56.5691 137.418C57.0789 136.286 58.2373 135.272 58.9513 134.791C59.6123 134.255 59.4358 133.284 59.1625 132.615C59.0416 132.319 58.8315 132.07 58.5818 131.871C55.4694 129.382 51.3817 129.245 49.4238 129.527C49.2365 129.554 49.0522 129.607 48.878 129.681C44.0481 131.73 44.7798 136.293 45.8848 138.64C45.9884 138.86 46.131 139.061 46.2998 139.236C49.6115 142.675 53.1031 141.569 55.1913 140.027C55.9913 139.436 56.1607 138.325 56.5691 137.418Z" fill="#C28858" stroke="black" stroke-width="3"/>
<ellipse cx="50.231" cy="137.25" rx="1.03226" ry="1.56559" fill="black"/>
<path d="M119.106 152.692C121.327 150.409 120.924 144.287 120.425 141.425L119.422 137.708C119.094 136.493 118.043 135.611 116.789 135.501L108.734 134.793C107.692 134.701 106.7 135.258 106.236 136.196C106.063 136.546 105.973 136.931 105.973 137.321V149.507C105.973 150.025 106.099 150.541 106.39 150.969C109.701 155.846 115.673 154.503 118.597 153.05C118.784 152.957 118.961 152.841 119.106 152.692Z" fill="#C28858" stroke="black" stroke-width="3"/>
<path d="M109.317 138.462C108.807 137.33 107.649 136.316 106.935 135.835C106.274 135.299 106.45 134.328 106.724 133.659C106.845 133.363 107.055 133.114 107.304 132.915C110.417 130.426 114.505 130.289 116.462 130.571C116.65 130.598 116.834 130.651 117.008 130.724C121.838 132.774 121.106 137.337 120.001 139.684C119.898 139.904 119.755 140.105 119.586 140.28C116.275 143.719 112.783 142.613 110.695 141.071C109.895 140.48 109.726 139.369 109.317 138.462Z" fill="#C28858" stroke="black" stroke-width="3"/>
<ellipse cx="1.03226" cy="1.56559" rx="1.03226" ry="1.56559" transform="matrix(-1 0 0 1 116.688 136.728)" fill="black"/>
<g filter="url(#filter0_d_391_2661)">
<rect x="71.9082" y="132.553" width="17.5484" height="15.6559" rx="5" fill="#D1D3D2"/>
<rect x="72.9082" y="133.553" width="15.5484" height="13.6559" rx="4" stroke="black" stroke-width="2"/>
</g>
<g filter="url(#filter1_d_391_2661)">
<rect x="75.0054" y="135.685" width="11.3549" height="9.39356" rx="3" fill="#C28858"/>
<rect x="76.0054" y="136.685" width="9.35485" height="7.39356" rx="2" stroke="black" stroke-width="2"/>
</g>
<defs>
<filter id="filter0_d_391_2661" x="67.9082" y="132.553" width="25.5483" height="23.656" filterUnits="userSpaceOnUse" color-interpolation-filters="sRGB">
<feFlood flood-opacity="0" result="BackgroundImageFix"/>
<feColorMatrix in="SourceAlpha" type="matrix" values="0 0 0 0 0 0 0 0 0 0 0 0 0 0 0 0 0 0 127 0" result="hardAlpha"/>
<feOffset dy="4"/>
<feGaussianBlur stdDeviation="2"/>
<feComposite in2="hardAlpha" operator="out"/>
<feColorMatrix type="matrix" values="0 0 0 0 0 0 0 0 0 0 0 0 0 0 0 0 0 0 0.25 0"/>
<feBlend mode="normal" in2="BackgroundImageFix" result="effect1_dropShadow_391_2661"/>
<feBlend mode="normal" in="SourceGraphic" in2="effect1_dropShadow_391_2661" result="shape"/>
</filter>
<filter id="filter1_d_391_2661" x="71.0054" y="135.685" width="19.355" height="17.3936" filterUnits="userSpaceOnUse" color-interpolation-filters="sRGB">
<feFlood flood-opacity="0" result="BackgroundImageFix"/>
<feColorMatrix in="SourceAlpha" type="matrix" values="0 0 0 0 0 0 0 0 0 0 0 0 0 0 0 0 0 0 127 0" result="hardAlpha"/>
<feOffset dy="4"/>
<feGaussianBlur stdDeviation="2"/>
<feComposite in2="hardAlpha" operator="out"/>
<feColorMatrix type="matrix" values="0 0 0 0 0 0 0 0 0 0 0 0 0 0 0 0 0 0 0.25 0"/>
<feBlend mode="normal" in2="BackgroundImageFix" result="effect1_dropShadow_391_2661"/>
<feBlend mode="normal" in="SourceGraphic" in2="effect1_dropShadow_391_2661" result="shape"/>
</filter>
</defs>
</svg>
