<svg width="160" height="171" viewBox="0 0 160 171" fill="none" xmlns="http://www.w3.org/2000/svg">
<path d="M131.53 81.3072C134.722 91.6222 123.73 105.653 110.17 111.542C102.427 114.906 80.8062 115.577 78.9059 106.591C77.0056 97.6057 97.2623 79.2539 107.577 75.2205C113.888 72.7526 127.636 68.722 131.53 81.3072Z" fill="#CDF0F6" fill-opacity="0.65"/>
<ellipse cx="74.5969" cy="166.615" rx="28.8362" ry="3.66174" fill="#C28858"/>
<path d="M5.33578 81.3072C2.14393 91.6222 13.1358 105.653 26.6958 111.542C34.4394 114.906 56.06 115.577 57.9603 106.591C59.8606 97.6057 39.6039 79.2539 29.2892 75.2205C22.9778 72.7526 9.2301 68.722 5.33578 81.3072Z" fill="#CDF0F6" fill-opacity="0.65"/>
<path d="M112.287 107.584C108.548 112.42 104.549 112.846 102.242 112.277C101.47 112.087 100.654 111.977 99.8939 112.208L97.69 112.879C96.3869 113.275 95.5145 114.5 95.5655 115.861L95.8018 122.173C95.8622 123.785 97.1866 125.06 98.7997 125.06H100.703C100.954 125.06 101.208 125.094 101.453 125.15C109.441 126.969 115.839 121.032 118.928 116.607C119.65 115.573 120.875 114.986 122.134 115.055C129.192 115.441 133.467 111.806 134.959 109.558C135.076 109.381 135.165 109.19 135.221 108.986C135.962 106.299 135.497 100.927 129.526 102.896C124.838 104.441 122.724 104.219 122.032 103.59C121.656 103.247 121.934 102.683 122.231 102.271C124.476 99.1626 124.02 98.4789 123.038 98.2693C122.77 98.2123 122.492 98.2249 122.227 98.2894C118.205 99.2653 113.955 104.835 112.287 107.584Z" fill="#242424"/>
<path d="M85.0213 160.964C89.0223 156.235 91.2351 145.649 90.9319 140.951C85.8397 134.768 77.292 140.504 74.5641 144.141C74.5641 150.688 76.3827 157.175 77.292 159.6C79.8381 165.056 83.5057 162.782 85.0213 160.964Z" fill="#1A1A1A"/>
<path d="M31.4886 149.001C30.529 149.161 29.9292 147.995 30.6171 147.307L42.6587 135.266C43.0677 134.857 43.7374 134.879 44.1183 135.314L51.7811 144.072C52.2968 144.661 51.9654 145.588 51.1929 145.717L31.4886 149.001Z" fill="#1A1A1A"/>
<path d="M80.8329 150.489C108.194 137.215 103.111 120.935 100.383 100.476C80.3462 104.884 58.3205 98.6882 53.7176 95.3626C37.8346 107.865 37.6442 124.739 39.4586 133.211C47.8909 156.977 70.8365 154.053 80.8329 150.489Z" fill="#1A1A1A"/>
<path d="M43.5494 51.6203C34.0924 76.7177 46.2773 91.176 53.5519 95.2679C73.1934 106.907 94.7747 101.936 103.11 97.9959C120.205 91.085 122.112 78.733 119.661 71.3819C118.752 68.6539 117.843 67.7446 117.843 62.2887C116.751 40.8286 100.837 32.8276 93.1076 30.7058C63.6455 21.2489 47.7929 40.7084 43.5494 51.6203Z" fill="#FDE68A" stroke="black" stroke-width="5"/>
<ellipse cx="70.4723" cy="65.4714" rx="6.81994" ry="9.09325" fill="#281E1F"/>
<ellipse cx="100.935" cy="64.562" rx="6.36528" ry="9.09325" fill="#281E1F"/>
<circle cx="72.2909" cy="61.3795" r="2.27331" fill="white"/>
<circle cx="102.299" cy="60.4701" r="2.27331" fill="white"/>
<path d="M56.5365 90.8455C34.258 73.1137 50.2552 46.0479 59.5 36.5C48.0571 42.4503 41.7828 55.3867 40.6365 62.6564C36.0883 91.4992 56.9145 99.7381 71.3326 102.027C96.0493 105.95 111.898 91.3906 113.5 87.5C89.0121 104.207 66.5259 97.6654 56.5365 90.8455Z" fill="#FBB800"/>
<path d="M69.1936 77.7472C69.1936 80.0072 66.9203 81.8392 62.3737 81.8392C58.6071 81.8392 55.5537 80.4752 55.5537 77.7472C55.5537 75.0193 58.6071 73.6553 62.3737 73.6553C66.1402 73.6553 69.1936 75.0193 69.1936 77.7472Z" fill="#FA9C90"/>
<path d="M118.297 76.8381C118.297 79.098 116.024 80.93 111.477 80.93C107.711 80.93 104.657 79.566 104.657 76.8381C104.657 74.1101 107.711 72.7461 111.477 72.7461C115.244 72.7461 118.297 74.1101 118.297 76.8381Z" fill="#FA9C90"/>
<path d="M71.4666 34.9388C69.2842 37.8486 67.5262 36.1512 66.92 34.9388L66.4653 23.1175C66.4653 11.751 71.012 7.2746 72.8306 4.93104C77.8319 -0.524913 80.4083 -0.373359 81.9239 0.384412C88.8347 5.1129 83.2879 10.8417 77.8319 14.479C70.5573 19.9349 70.7089 28.8766 71.4666 34.9388Z" fill="black"/>
<path d="M94.3986 35.4232C91.1629 37.0846 90.3249 34.7891 90.3104 33.4336L95.0744 22.6053C100.048 12.3848 105.585 10.3597 108.756 9.03786C115.641 6.32052 117.891 7.58421 118.922 8.92877C123.067 16.2046 115.573 18.9285 109.075 19.8116C100.147 21.5342 96.37 29.6406 94.3986 35.4232Z" fill="black"/>
<path d="M100.026 108.21C80.1842 121.27 57.3931 108.516 48.6488 102.754C47.2179 104.194 43.8288 110.036 43.1929 112.756C67.9947 130.042 91.7361 126.088 100.48 120.486C101.39 116.848 100.98 110.13 100.026 108.21Z" fill="#FDE68A"/>
<path d="M97.0092 133.417C73.5146 143.493 51.4033 135.704 41.7441 122.372C41.553 122.108 41.175 122.098 41.0471 122.398C40.2058 124.368 40.5356 129.113 40.9071 130.885C40.9155 130.925 40.9289 130.962 40.9472 130.999C49.3929 147.901 79.4352 147.647 89.2948 142.555C90.1145 142.132 90.8068 141.527 91.4552 140.871C93.913 138.382 96.329 135.817 97.5569 134.014C97.8148 133.635 97.4303 133.237 97.0092 133.417Z" fill="#FDE68A"/>
<path d="M59.6408 163.686C55.6397 158.958 55.2457 148.379 55.5488 143.681C60.641 137.497 67.37 143.226 70.098 146.863C70.098 153.411 68.2793 159.897 67.37 162.322C64.8239 167.778 61.1563 165.505 59.6408 163.686Z" fill="#1A1A1A"/>
<path d="M83.722 109.129C77.9637 110.263 71.7512 109.012 68.2148 107.578C67.0704 107.114 65.7307 107.165 64.7428 107.906L59.492 111.844C58.2454 112.779 57.9249 114.518 58.9543 115.688C60.8657 117.86 63.3113 119.862 64.5622 120.772C74.4549 126.516 83.2044 123.581 87.5558 120.625C88.5492 119.95 89.8158 119.767 90.9801 120.061C94.3122 120.903 97.3829 120.047 98.6619 119.408C100.248 118.35 100.329 115.146 100.022 112.486C99.8479 110.975 100.653 109.478 102.045 108.866C104.177 107.929 105.902 106.96 106.967 106.291C107.489 105.963 107.906 105.456 107.99 104.846C108.554 100.789 100.791 103.1 95.0984 105.294C93.5438 105.893 91.8027 105.147 91.0226 103.675C87.5191 97.0629 85.1833 100.596 85.8927 105.15C86.1619 106.879 85.4386 108.79 83.722 109.129Z" fill="#242424"/>
<path d="M91.5759 73.4318C88.5066 74.1131 84.8759 73.9274 82.2459 73.5501C80.92 73.3598 79.6417 74.3856 79.7778 75.7181C80.6758 84.5082 84.7866 86.9415 87.5872 86.7935C92.2333 86.5479 94.0629 80.1996 94.4479 75.4877C94.5662 74.0386 92.9952 73.1167 91.5759 73.4318Z" fill="black"/>
<path d="M90.5819 80.1352C87.621 77.5917 84.9289 78.9504 83.4627 80.3328C82.9714 80.7961 82.8584 81.5277 83.1639 82.1299C84.499 84.7609 86.6659 85.3947 87.438 85.2835C89.2455 85.2327 90.4711 83.2471 91.022 81.8173C91.2523 81.2195 91.0678 80.5526 90.5819 80.1352Z" fill="#F76F57"/>
<path d="M140.16 24.605C145.726 24.605 150.2 28.9132 150.2 34.1802C150.2 36.1968 149.546 38.0679 148.428 39.6128C148.277 39.8216 148.137 40.0522 148.028 40.3052L145.388 46.4673C145.044 47.2687 144.263 47.7845 143.403 47.7847H136.917C136.057 47.7847 135.276 47.2688 134.933 46.4673L132.291 40.3052C132.183 40.0522 132.044 39.8216 131.893 39.6128C130.774 38.0679 130.12 36.1969 130.12 34.1802C130.12 28.9131 134.594 24.605 140.16 24.605Z" fill="#FDE68A" stroke="white"/>
<path d="M143.864 48.9048C144.215 48.9049 144.5 49.1826 144.5 49.5249C144.499 49.8672 144.215 50.1449 143.864 50.145H137.077C136.725 50.145 136.44 49.8673 136.44 49.5249C136.44 49.1825 136.725 48.9048 137.077 48.9048H143.864Z" fill="black"/>
<path d="M143.864 48.9048C144.215 48.9049 144.5 49.1826 144.5 49.5249C144.499 49.8672 144.215 50.1449 143.864 50.145H137.077C136.725 50.145 136.44 49.8673 136.44 49.5249C136.44 49.1825 136.725 48.9048 137.077 48.9048H143.864Z" stroke="black"/>
<path d="M143.864 50.7646C144.215 50.7648 144.5 51.0424 144.5 51.3848C144.499 51.7271 144.215 52.0048 143.864 52.0049H137.077C136.725 52.0049 136.44 51.7271 136.44 51.3848C136.44 51.0424 136.725 50.7646 137.077 50.7646H143.864Z" fill="black"/>
<path d="M143.864 50.7646C144.215 50.7648 144.5 51.0424 144.5 51.3848C144.499 51.7271 144.215 52.0048 143.864 52.0049H137.077C136.725 52.0049 136.44 51.7271 136.44 51.3848C136.44 51.0424 136.725 50.7646 137.077 50.7646H143.864Z" stroke="black"/>
<path d="M143.789 52.6582C144.181 52.6582 144.5 52.9359 144.5 53.2783C144.499 53.6207 144.181 53.8984 143.789 53.8984H137.151C136.758 53.8983 136.44 53.6206 136.44 53.2783C136.44 52.936 136.758 52.6583 137.151 52.6582H143.789Z" fill="black"/>
<path d="M143.789 52.6582C144.181 52.6582 144.5 52.9359 144.5 53.2783C144.499 53.6207 144.181 53.8984 143.789 53.8984H137.151C136.758 53.8983 136.44 53.6206 136.44 53.2783C136.44 52.936 136.758 52.6583 137.151 52.6582H143.789Z" stroke="black"/>
<path d="M143.88 54.5181H137.061C137.708 56.006 139.488 56.3796 140.528 56.378C142.479 56.3751 143.599 55.1356 143.88 54.5181Z" fill="black"/>
<path d="M139.31 25.9729C135.262 26.0604 132.721 29.1112 132.721 30.7831C132.721 31.767 133.952 33.3255 135.074 30.7831C136.196 28.2407 138.479 28.5583 140.016 27.7221C141.554 26.8859 140.487 25.8636 139.31 25.9729Z" fill="white"/>
<path d="M133.96 33.405C133.96 34.0899 133.405 34.645 132.72 34.645C132.036 34.645 131.48 34.0899 131.48 33.405C131.48 32.7202 132.036 32.165 132.72 32.165C133.405 32.165 133.96 32.7202 133.96 33.405Z" fill="white"/>
<path d="M126.908 34.6448C127.379 34.6448 127.76 35.0611 127.76 35.5748C127.76 36.0884 127.379 36.5048 126.908 36.5048H121.793C121.322 36.5048 120.94 36.0884 120.94 35.5748C120.94 35.0611 121.322 34.6448 121.793 34.6448H126.908Z" fill="#E6A800"/>
<path d="M130.406 24.8552C130.749 25.2048 130.744 25.7666 130.395 26.11C130.045 26.4534 129.483 26.4484 129.14 26.0988L125.409 22.3011C125.066 21.9516 125.071 21.3898 125.42 21.0464C125.77 20.703 126.332 20.7079 126.675 21.0575L130.406 24.8552Z" fill="#E6A800"/>
<path d="M141.408 21.6691C141.413 22.1591 141.021 22.5608 140.531 22.5663C140.041 22.5719 139.639 22.1791 139.633 21.6891L139.573 16.3657C139.568 15.8757 139.961 15.474 140.451 15.4685C140.941 15.463 141.342 15.8557 141.348 16.3457L141.408 21.6691Z" fill="#E6A800"/>
<path d="M151.536 26.1825C151.203 26.5413 150.641 26.5618 150.282 26.2281C149.924 25.8944 149.903 25.333 150.237 24.9741L153.862 21.0753C154.196 20.7164 154.757 20.6959 155.116 21.0296C155.475 21.3633 155.495 21.9247 155.161 22.2836L151.536 26.1825Z" fill="#E6A800"/>
<path d="M153.791 36.6657C153.301 36.6772 152.894 36.2893 152.883 35.7994C152.871 35.3095 153.259 34.9031 153.749 34.8916L159.071 34.7672C159.561 34.7557 159.968 35.1436 159.979 35.6335C159.991 36.1234 159.603 36.5298 159.113 36.5413L153.791 36.6657Z" fill="#E6A800"/>
<path d="M148.933 44.9373C148.584 44.5934 148.579 44.0317 148.923 43.6825C149.267 43.3334 149.829 43.3291 150.178 43.673L153.971 47.4087C154.32 47.7526 154.324 48.3144 153.981 48.6635C153.637 49.0126 153.075 49.0169 152.726 48.673L148.933 44.9373Z" fill="#E6A800"/>
<path d="M131.158 45.5345C131.507 45.1906 131.511 44.6288 131.167 44.2797C130.823 43.9306 130.261 43.9263 129.912 44.2702L126.119 48.0059C125.77 48.3498 125.766 48.9115 126.11 49.2607C126.454 49.6098 127.015 49.6141 127.365 49.2702L131.158 45.5345Z" fill="#E6A800"/>
</svg>
