<svg width="134" height="225" viewBox="0 0 134 225" fill="none" xmlns="http://www.w3.org/2000/svg">
<g id="Idetentifying">
<path id="Ellipse 28" d="M26.1091 83.2032C22.7151 81.8761 17.514 80.214 12.7269 80.475C10.3584 80.6042 8.17132 81.2003 6.35736 82.4689C4.56076 83.7255 3.01292 85.7229 2.03944 88.8689C0.506471 93.8232 2.32877 99.9408 6.60013 105.785C10.8395 111.586 17.3026 116.833 24.4336 119.93C28.3494 121.631 36.0673 122.724 43.0981 122.155C46.5974 121.871 49.7931 121.186 52.1917 120.046C54.5906 118.905 55.9857 117.421 56.3684 115.612C56.7635 113.744 56.0268 111.086 54.1204 107.847C52.2541 104.675 49.4335 101.225 46.1587 97.8968C39.5782 91.2094 31.4395 85.2876 26.1091 83.2032Z" fill="#CDF0F6" fill-opacity="0.65" stroke="#28899A" stroke-width="3"/>
<ellipse id="Ellipse 46" cx="64.9898" cy="222.511" rx="14.9336" ry="2.48894" fill="#8A5611"/>
<g id="Vector 47">
<path d="M117.44 106.132C113.119 113.848 107.097 111.52 104.536 109.292C101.42 109.634 101.254 115.651 101.933 119.137C102.001 119.486 102.147 119.812 102.344 120.108L105.32 124.571C105.757 125.227 106.435 125.697 107.216 125.802C115.56 126.926 121.535 121.353 123.908 117.805C124.175 117.405 124.51 117.055 124.918 116.8L125.603 116.372C127.049 115.468 127.453 113.543 126.493 112.135L122.188 105.821C121.413 104.685 119.918 104.296 118.688 104.911C118.156 105.177 117.731 105.613 117.44 106.132Z" fill="#2F2724"/>
<path d="M104.518 109.277C107.07 111.51 113.109 113.866 117.44 106.132C117.731 105.613 118.156 105.177 118.688 104.911C119.918 104.296 121.413 104.685 122.188 105.821L126.493 112.135C127.453 113.543 127.049 115.468 125.603 116.372L124.918 116.8C124.51 117.055 124.175 117.405 123.908 117.805C121.535 121.353 115.56 126.926 107.216 125.802C106.435 125.697 105.757 125.227 105.32 124.571L102.344 120.108C102.147 119.812 102.001 119.486 101.933 119.137C101.234 115.548 101.43 109.277 104.819 109.277" stroke="black" stroke-width="3.00191"/>
</g>
<g id="Group 12">
<path id="Vector 38" d="M87.2782 175.055C91.6295 169.913 94.036 158.4 93.7063 153.291C88.1683 146.566 78.8723 152.804 75.9056 156.76C75.9056 163.88 77.8834 170.935 78.8724 173.572C81.6414 179.506 85.63 177.033 87.2782 175.055Z" fill="#2C2626" stroke="black" stroke-width="3"/>
<path id="Polygon 8" d="M41.9064 149.947L47.5751 156.424L32.9988 158.853L41.9064 149.947Z" fill="#2C2626" stroke="black" stroke-width="5"/>
<path id="Vector 43" d="M82.7226 163.663C112.479 149.227 106.951 131.523 103.985 109.272C82.1934 114.066 58.2395 107.328 53.2336 103.711C35.9602 117.308 35.7532 135.659 37.7264 144.873C46.8968 170.719 71.8512 167.539 82.7226 163.663Z" fill="#2C2626" stroke="black" stroke-width="3"/>
<path id="Vector 27" d="M42.1745 56.1396C31.8896 83.4341 45.1413 99.1581 53.0527 103.608C74.4135 116.267 97.8841 110.86 106.949 106.575C125.541 99.0592 127.614 85.6258 124.949 77.6312C123.96 74.6644 122.971 73.6754 122.971 67.7418C121.785 44.4031 104.477 35.7016 96.0711 33.3941C64.0298 23.1092 46.7895 44.2724 42.1745 56.1396Z" fill="#FDE68A" stroke="black" stroke-width="3"/>
<ellipse id="Ellipse 29" cx="72.5364" cy="71.2029" rx="7.41697" ry="9.88932" fill="#281E1F"/>
<ellipse id="Ellipse 30" cx="104.584" cy="70.2142" rx="6.9225" ry="9.88932" fill="#281E1F"/>
<ellipse id="Ellipse 31" cx="74.5141" cy="66.7529" rx="2.47232" ry="2.47233" fill="white"/>
<ellipse id="Ellipse 32" cx="106.067" cy="65.764" rx="2.47232" ry="2.47233" fill="white"/>
<path id="Vector 29" d="M84.3113 89.0038C85.7947 86.5314 92.2228 80.5978 98.1563 86.5314" stroke="black" stroke-width="5.00318" stroke-linecap="round"/>
<path id="Vector 30" d="M57.2081 97.9041C32.9794 78.6199 50.1207 47.9631 60.1748 37.5793C47.5166 43.9084 41.3996 59.6654 39.9162 67.2472C36.4406 99.3875 60.6693 108.453 73.5254 109.771C100.424 113.331 116.214 101.036 120.5 94.9373C92.0184 113.925 68.0721 105.321 57.2081 97.9041Z" fill="#FBB800"/>
<path id="Ellipse 33" d="M70.0643 84.5538C70.0643 87.0115 67.592 89.004 62.6473 89.004C58.5511 89.004 55.2304 87.5206 55.2304 84.5538C55.2304 81.587 58.5511 80.1036 62.6473 80.1036C66.7436 80.1036 70.0643 81.587 70.0643 84.5538Z" fill="#FA9C90"/>
<path id="Ellipse 34" d="M123.466 83.5646C123.466 86.0224 120.994 88.0148 116.049 88.0148C111.953 88.0148 108.632 86.5314 108.632 83.5646C108.632 80.5978 111.953 79.1144 116.049 79.1144C120.146 79.1144 123.466 80.5978 123.466 83.5646Z" fill="#FA9C90"/>
<path id="Vector 31" d="M72.5364 37.9975C70.163 41.162 68.251 39.316 67.5917 37.9975L67.0973 25.1414C67.0972 12.7797 72.0419 7.91145 74.0198 5.36272C79.4589 -0.570866 82.2609 -0.406044 83.9091 0.418066C91.4249 5.56051 85.3925 11.7908 79.4589 15.7465C71.5475 21.6801 71.7123 31.4046 72.5364 37.9975Z" fill="black"/>
<path id="Vector 32" d="M97.4763 38.5243C93.9574 40.3312 93.046 37.8347 93.0302 36.3605L98.2113 24.5843C103.621 13.469 109.642 11.2667 113.091 9.82907C120.578 6.87385 123.025 8.24817 124.147 9.71044C128.654 17.6233 120.504 20.5856 113.438 21.546C103.727 23.4194 99.6203 32.2355 97.4763 38.5243Z" fill="black"/>
<path id="Vector 35" d="M103.595 117.683C82.0169 131.886 57.2306 118.015 47.7208 111.749C46.1647 113.316 42.4789 119.668 41.7873 122.627C68.7603 141.426 94.5801 137.125 104.09 131.033C105.079 127.078 104.633 119.771 103.595 117.683Z" fill="#FDE68A"/>
<path id="Vector 36" d="M100.419 145.053C74.8024 156.09 50.6811 147.586 40.1792 133.039C39.9885 132.775 39.6088 132.765 39.4759 133.062C38.5324 135.175 38.895 140.41 39.3027 142.348C39.3111 142.388 39.3245 142.425 39.3428 142.462C48.5547 160.909 81.4165 160.571 92.0302 154.981C92.847 154.55 93.5409 153.945 94.19 153.289C96.9345 150.513 99.645 147.638 100.973 145.653C101.228 145.272 100.84 144.871 100.419 145.053Z" fill="#FDE68A"/>
<path id="Vector 46" d="M65.8822 108.949C65.0594 115.859 60.815 113.624 59.3907 111.406C59.0778 110.918 58.4875 110.567 57.9307 110.727L49.1487 113.236C48.7958 113.337 48.5226 113.628 48.4562 113.989C46.5696 124.25 56.2156 128.706 61.432 128.728C75.0883 128.786 77.1673 118.865 77.7494 114.388C78.1213 111.528 81.881 111.856 82.1996 111.421C86.3993 105.699 81.3437 104.972 80.2217 103.51C79.1896 102.165 79.5522 100.543 80.2217 100.049C83.4037 97.6988 82.319 95.5333 81.2106 95.1041C76.8881 93.4302 71.8153 104.992 70.9545 101.836C69.4711 96.397 65.5455 98.5057 65.8822 100.543C66.5514 104.593 66.2262 106.061 65.8822 108.949Z" fill="#2C2626" stroke="black" stroke-width="3"/>
<path id="Vector 37" d="M59.6748 178.016C55.3235 172.873 54.895 161.369 55.2246 156.259C60.7626 149.535 68.0807 155.765 71.0474 159.721C71.0474 166.841 69.0696 173.895 68.0807 176.532C65.3117 182.466 61.323 179.994 59.6748 178.016Z" fill="#2C2626" stroke="black" stroke-width="3"/>
</g>
<path id="Polygon 9" d="M112.954 91.232C112.808 90.3922 113.858 89.7347 114.583 90.3854L119.597 94.888C120.084 95.3253 119.993 96.0973 119.41 96.4106L115.539 98.4887C114.933 98.8135 114.207 98.4426 114.097 97.8128L112.954 91.232Z" fill="#D9D9D9" stroke="black" stroke-width="2"/>
<path id="Vector 48" d="M115.019 101.86C114.253 100.71 113.842 99.5918 113.641 98.6502C113.369 97.3732 115.309 96.4013 116.409 95.6964C118.04 94.6502 119.923 93.9073 121.179 95.3831C121.524 95.7884 121.784 96.157 121.942 96.4209L131.701 114.081C132.111 114.822 132.351 115.659 132.26 116.501C131.746 121.266 128.3 121.234 125.749 120.28C124.848 119.943 124.175 119.208 123.726 118.358L115.019 101.86Z" fill="#29ADB9" stroke="black" stroke-width="2"/>
<path id="Ellipse 35" d="M123.268 97.9476C124.057 97.4274 124.818 97.4233 125.771 97.9494C126.844 98.5412 127.994 99.7661 128.895 101.387C129.762 102.946 130.119 104.528 130.035 105.687C129.955 106.798 129.546 107.182 129.134 107.344C128.021 107.785 127.139 107.697 126.354 107.3C125.487 106.861 124.523 105.927 123.627 104.317C122.651 102.563 122.124 101.034 122.087 99.9125C122.07 99.389 122.163 99.041 122.288 98.8022C122.405 98.5799 122.621 98.3126 123.098 98.05L123.184 98.0021L123.268 97.9476Z" fill="#2F2724" stroke="black" stroke-width="5"/>
<g id="Ellipse 37">
<mask id="path-26-inside-1_1218_4061" fill="white">
<path d="M126.33 72.1918C126.33 83.1152 117.475 91.9704 106.551 91.9704C95.628 91.9704 86.7729 83.1152 86.7729 72.1918C86.7729 61.2683 95.628 52.4132 106.551 52.4132C117.475 52.4132 126.33 61.2683 126.33 72.1918ZM91.0762 72.1918C91.0762 80.7385 98.0047 87.667 106.551 87.667C115.098 87.667 122.027 80.7385 122.027 72.1918C122.027 63.645 115.098 56.7165 106.551 56.7165C98.0047 56.7165 91.0762 63.645 91.0762 72.1918Z"/>
</mask>
<path d="M126.33 72.1918C126.33 83.1152 117.475 91.9704 106.551 91.9704C95.628 91.9704 86.7729 83.1152 86.7729 72.1918C86.7729 61.2683 95.628 52.4132 106.551 52.4132C117.475 52.4132 126.33 61.2683 126.33 72.1918ZM91.0762 72.1918C91.0762 80.7385 98.0047 87.667 106.551 87.667C115.098 87.667 122.027 80.7385 122.027 72.1918C122.027 63.645 115.098 56.7165 106.551 56.7165C98.0047 56.7165 91.0762 63.645 91.0762 72.1918Z" fill="#D9D9D9" stroke="black" stroke-width="4" mask="url(#path-26-inside-1_1218_4061)"/>
</g>
<path id="Ellipse 36" d="M106.551 56.6192C115.151 56.6192 122.124 63.5912 122.124 72.1916C122.124 80.7922 115.152 87.7649 106.551 87.7649C97.9506 87.7648 90.9786 80.7921 90.9786 72.1916C90.9788 63.5913 97.9507 56.6194 106.551 56.6192Z" fill="white" fill-opacity="0.5" stroke="black" stroke-width="0.5"/>
<g id="belt">
<g id="Group 32">
<path id="Vector 94" d="M114.161 139.001C113.662 133.937 109.221 133.339 107.577 133.498L107.349 133.533L106.809 137.389L110.903 140.706C112.741 142.349 113.99 140.106 114.161 139.001Z" fill="#8A5611" stroke="black" stroke-width="2"/>
<path id="Vector 93" d="M113.462 142.155C113.676 138.887 111.328 137.752 110.355 137.367C107.102 136.382 105.111 139.598 104.521 141.57L104.065 148.539C106.227 154.714 111.706 152.579 112.944 150.085L113.462 142.155Z" fill="#8A5611" stroke="black" stroke-width="2"/>
</g>
<g id="Group 31">
<path id="Vector 59" d="M100.266 140.744C82.7017 145.662 54.998 139.115 42.1994 134.315C39.612 133.345 36.3707 135.328 36.3707 138.097L36.3707 139.068C36.3707 140.336 37.0549 141.498 38.1784 142.076C53.521 149.977 77.1173 157.308 102.998 150.24C104.361 149.868 105.346 148.684 105.507 147.286L105.779 144.927C106.103 142.109 103.009 139.976 100.266 140.744Z" fill="#8A5611" stroke="black" stroke-width="2"/>
<g id="Group 18">
<path id="Vector 54" d="M40.6337 152.36C38.6387 150.058 39.4214 143.927 40.1797 141.08C40.2378 140.862 40.3269 140.655 40.4387 140.458L41.5317 138.533C42.0547 137.612 43.0356 137.043 44.0903 137.047L53.9089 137.086C54.3633 137.088 54.8053 137.224 55.1796 137.476C55.8737 137.943 56.2531 138.753 56.1698 139.59L55.0769 150.578C55.0246 151.104 54.8364 151.618 54.4784 152.011C50.5692 156.308 43.9573 154.36 41.0854 152.718C40.917 152.622 40.7606 152.506 40.6337 152.36Z" fill="#8A5611" stroke="black" stroke-width="2"/>
<path id="Vector 55" d="M52.2341 142.74C53.2519 141.867 55.6444 139.67 56.276 138.524C56.6835 137.784 55.6349 136.79 55.0822 136.131C54.8837 135.895 54.7014 135.64 54.4714 135.434C51.5094 132.781 47.3098 132.301 45.2942 132.404C45.1232 132.413 44.9517 132.443 44.787 132.491C39.6315 134.002 39.9436 138.4 40.8514 140.728C40.9378 140.949 41.0647 141.154 41.2197 141.334C44.995 145.717 50.335 144.371 52.2341 142.74Z" fill="#8A5611" stroke="black" stroke-width="2"/>
<ellipse id="Ellipse 39" cx="1.05774" cy="1.49082" rx="1.05774" ry="1.49082" transform="matrix(0.996982 0.0854206 -0.0990371 0.995722 44.5175 138.222)" fill="black"/>
</g>
<g id="Rectangle 210" filter="url(#filter0_d_1218_4061)">
<path d="M76.7394 145.367C76.8212 142.645 79.0492 140.45 81.7733 140.407L90.5739 140.269C93.4242 140.225 95.7136 142.546 95.6281 145.394L95.5001 149.652C95.42 152.32 93.2754 154.492 90.607 154.608L81.799 154.991C78.8944 155.118 76.5168 152.774 76.6041 149.87L76.7394 145.367Z" fill="#D1D3D2"/>
<path d="M90.576 141.278C92.8563 141.242 94.6875 143.1 94.6191 145.378L94.4912 149.636C94.4269 151.77 92.7117 153.507 90.5773 153.6L81.769 153.983C79.4454 154.084 77.5427 152.21 77.6124 149.887L77.7477 145.383C77.8131 143.206 79.5959 141.45 81.7751 141.415L90.576 141.278Z" stroke="black" stroke-width="2.01659"/>
</g>
<g id="Rectangle 209" filter="url(#filter1_d_1218_4061)">
<path d="M80.0007 145.936C80.0493 144.318 81.3813 143.018 83.0004 143.007L89.5543 142.965C91.2266 142.954 92.5615 144.32 92.5113 145.991L92.4017 149.64C92.3541 151.225 91.0729 152.512 89.4872 152.567L82.9276 152.797C81.2222 152.857 79.8342 151.477 79.8854 149.772L80.0007 145.936Z" fill="#8A5611"/>
<path d="M89.5512 143.465C90.9423 143.456 92.053 144.593 92.0112 145.983L91.9016 149.632C91.8619 150.951 90.7958 152.022 89.4765 152.068L82.9172 152.298C81.4982 152.347 80.3431 151.199 80.3857 149.781L80.501 145.944C80.5415 144.598 81.6496 143.517 82.9965 143.508L89.5512 143.465Z" stroke="black"/>
</g>
</g>
</g>
</g>
<defs>
<filter id="filter0_d_1218_4061" x="72.5656" y="140.268" width="27.1002" height="22.7991" filterUnits="userSpaceOnUse" color-interpolation-filters="sRGB">
<feFlood flood-opacity="0" result="BackgroundImageFix"/>
<feColorMatrix in="SourceAlpha" type="matrix" values="0 0 0 0 0 0 0 0 0 0 0 0 0 0 0 0 0 0 127 0" result="hardAlpha"/>
<feOffset dy="4.03319"/>
<feGaussianBlur stdDeviation="2.01659"/>
<feComposite in2="hardAlpha" operator="out"/>
<feColorMatrix type="matrix" values="0 0 0 0 0 0 0 0 0 0 0 0 0 0 0 0 0 0 0.25 0"/>
<feBlend mode="normal" in2="BackgroundImageFix" result="effect1_dropShadow_1218_4061"/>
<feBlend mode="normal" in="SourceGraphic" in2="effect1_dropShadow_1218_4061" result="shape"/>
</filter>
<filter id="filter1_d_1218_4061" x="75.9121" y="142.965" width="20.5724" height="17.7779" filterUnits="userSpaceOnUse" color-interpolation-filters="sRGB">
<feFlood flood-opacity="0" result="BackgroundImageFix"/>
<feColorMatrix in="SourceAlpha" type="matrix" values="0 0 0 0 0 0 0 0 0 0 0 0 0 0 0 0 0 0 127 0" result="hardAlpha"/>
<feOffset dy="3.9691"/>
<feGaussianBlur stdDeviation="1.98455"/>
<feComposite in2="hardAlpha" operator="out"/>
<feColorMatrix type="matrix" values="0 0 0 0 0 0 0 0 0 0 0 0 0 0 0 0 0 0 0.25 0"/>
<feBlend mode="normal" in2="BackgroundImageFix" result="effect1_dropShadow_1218_4061"/>
<feBlend mode="normal" in="SourceGraphic" in2="effect1_dropShadow_1218_4061" result="shape"/>
</filter>
</defs>
</svg>
