<svg width="20" height="20" viewBox="0 0 20 20" fill="none" xmlns="http://www.w3.org/2000/svg">
<path d="M10.6666 16.3334C10.8779 16.4918 11.1238 16.5978 11.3841 16.6426C11.6443 16.6874 11.9115 16.6696 12.1636 16.5909C12.4156 16.5122 12.6454 16.3746 12.8339 16.1897C13.0224 16.0047 13.1643 15.7776 13.2478 15.5271C13.3313 15.2766 13.3541 15.0098 13.3142 14.7487C13.2744 14.4876 13.1731 14.2398 13.0187 14.0255C12.8643 13.8113 12.6612 13.6368 12.4261 13.5165C12.191 13.3961 11.9307 13.3334 11.6666 13.3334H1.66663" stroke="currentColor" stroke-width="1.6" stroke-linecap="round" stroke-linejoin="round"/>
<path d="M14.5833 6.66671C14.7964 6.38261 15.0785 6.1577 15.403 6.01332C15.7274 5.86895 16.0834 5.8099 16.4371 5.84179C16.7907 5.87368 17.1304 5.99545 17.4238 6.19554C17.7172 6.39563 17.9545 6.66739 18.1134 6.98501C18.2722 7.30264 18.3471 7.65559 18.3312 8.01035C18.3152 8.36511 18.2088 8.7099 18.0221 9.01198C17.8355 9.31406 17.5746 9.56341 17.2645 9.73634C16.9543 9.90927 16.6051 10 16.25 10H1.66663" stroke="currentColor" stroke-width="1.6" stroke-linecap="round" stroke-linejoin="round"/>
<path d="M8.16662 3.66671C8.37789 3.50826 8.62379 3.40228 8.88405 3.3575C9.14432 3.31273 9.4115 3.33044 9.66357 3.40918C9.91564 3.48793 10.1454 3.62544 10.3339 3.8104C10.5224 3.99536 10.6643 4.22246 10.7478 4.47299C10.8313 4.72353 10.8541 4.99032 10.8142 5.25139C10.7744 5.51245 10.6731 5.76032 10.5187 5.97456C10.3643 6.1888 10.1612 6.36327 9.92609 6.48361C9.69102 6.60395 9.43071 6.66671 9.16662 6.66671H1.66663" stroke="currentColor" stroke-width="1.6" stroke-linecap="round" stroke-linejoin="round"/>
</svg>
