<svg width="20" height="20" viewBox="0 0 20 20" fill="none" xmlns="http://www.w3.org/2000/svg">
<path d="M12.0833 3.33337H7.91663L5.83329 5.83337H3.33329C2.89127 5.83337 2.46734 6.00897 2.15478 6.32153C1.84222 6.63409 1.66663 7.05801 1.66663 7.50004V15C1.66663 15.4421 1.84222 15.866 2.15478 16.1786C2.46734 16.4911 2.89127 16.6667 3.33329 16.6667H16.6666C17.1087 16.6667 17.5326 16.4911 17.8451 16.1786C18.1577 15.866 18.3333 15.4421 18.3333 15V7.50004C18.3333 7.05801 18.1577 6.63409 17.8451 6.32153C17.5326 6.00897 17.1087 5.83337 16.6666 5.83337H14.1666L12.0833 3.33337Z" stroke="#4A2F0B" stroke-width="1.6" stroke-linecap="round" stroke-linejoin="round"/>
<path d="M10 13.3334C11.3807 13.3334 12.5 12.2141 12.5 10.8334C12.5 9.45266 11.3807 8.33337 10 8.33337C8.61929 8.33337 7.5 9.45266 7.5 10.8334C7.5 12.2141 8.61929 13.3334 10 13.3334Z" stroke="#4A2F0B" stroke-width="1.6" stroke-linecap="round" stroke-linejoin="round"/>
</svg>
