<svg width="20" height="20" viewBox="0 0 20 20" fill="none" xmlns="http://www.w3.org/2000/svg">
<path d="M2.5 5H4.16667H17.5" stroke="#4A2F0B" stroke-width="1.6" stroke-linecap="round" stroke-linejoin="round"/>
<path d="M15.8334 5L15.0001 16.6667C15.0001 17.1087 14.8245 17.5326 14.5119 17.8452C14.1994 18.1577 13.7754 18.3333 13.3334 18.3333H6.66675C6.22472 18.3333 5.8008 18.1577 5.48824 17.8452C5.17568 17.5326 5.00008 17.1087 5.00008 16.6667L4.16675 5" stroke="#4A2F0B" stroke-width="1.6" stroke-linecap="round" stroke-linejoin="round"/>
<path d="M8.33325 9.16663V14.1666M11.6666 9.16663V14.1666" stroke="#4A2F0B" stroke-width="1.6" stroke-linecap="round" stroke-linejoin="round"/>
<path d="M7.5 5V3.33333C7.5 3.11232 7.5878 2.90036 7.74408 2.74408C7.90036 2.5878 8.11232 2.5 8.33333 2.5H11.6667C11.8877 2.5 12.0996 2.5878 12.2559 2.74408C12.4122 2.90036 12.5 3.11232 12.5 3.33333V5" stroke="#4A2F0B" stroke-width="1.6" stroke-linecap="round" stroke-linejoin="round"/>
</svg>
