<svg width="19" height="19" viewBox="0 0 19 19" fill="none" xmlns="http://www.w3.org/2000/svg">
<path d="M8.30005 2.56782H2.46672C2.02469 2.56782 1.60076 2.74341 1.2882 3.05597C0.975643 3.36853 0.800049 3.79245 0.800049 4.23448V15.9011C0.800049 16.3432 0.975643 16.7671 1.2882 17.0797C1.60076 17.3922 2.02469 17.5678 2.46672 17.5678H14.1334C14.5754 17.5678 14.9993 17.3922 15.3119 17.0797C15.6245 16.7671 15.8 16.3432 15.8 15.9011V10.0678M14.55 1.31782C14.8816 0.986295 15.3312 0.800049 15.8 0.800049C16.2689 0.800049 16.7185 0.986295 17.05 1.31782C17.3816 1.64934 17.5678 2.09897 17.5678 2.56782C17.5678 3.03666 17.3816 3.48629 17.05 3.81782L9.13338 11.7345L5.80005 12.5678L6.63338 9.23448L14.55 1.31782Z" stroke="#4A2F0B" stroke-width="1.6"/>
</svg>
