<svg width="20" height="20" viewBox="0 0 20 20" fill="none" xmlns="http://www.w3.org/2000/svg">
<path d="M10.2549 0.799805C12.8454 0.799817 14.7059 1.83131 15.7646 2.60059L14.0596 4.26465C13.2796 3.72718 11.9944 3.08105 10.3467 3.08105C8.5085 3.08107 6.62585 3.75305 5.34863 5.01367C4.10087 6.24532 3.24414 8.10618 3.24414 9.99316V9.99805C3.2505 10.9276 3.44398 11.8468 3.8125 12.7021C4.18106 13.5575 4.71775 14.3325 5.39062 14.9824L5.39551 14.9873C6.68232 16.2105 8.59268 16.9531 10.4121 16.9531C12.9003 16.9531 16.053 15.3517 16.7432 12.1367C16.7937 11.9007 16.7355 11.6546 16.584 11.4668C16.4321 11.2789 16.2026 11.1689 15.9609 11.1689H11.0938V8.83105H19.123C19.1542 9.0974 19.2002 9.58277 19.2002 10.2432C19.2001 12.5276 18.4614 14.6805 17.0654 16.2881L16.7783 16.6016C15.1631 18.269 12.8844 19.2002 10.4609 19.2002C7.7606 19.2002 5.17014 18.2197 3.3584 16.3848H3.35938C1.66628 14.6667 0.799805 12.3113 0.799805 10C0.799805 7.83377 1.60738 5.51571 3.14355 3.83398L3.46094 3.50586C5.24171 1.76462 7.68885 0.799805 10.2549 0.799805Z" stroke="#4A2F0B" stroke-width="1.6" stroke-linejoin="round"/>
</svg>
