<svg width="20" height="20" viewBox="0 0 20 20" fill="none" xmlns="http://www.w3.org/2000/svg">
<path d="M10.5008 18.1658C12.0508 16.8275 16.6666 12.4941 16.6666 8.33329C16.6666 6.56518 15.9642 4.86949 14.714 3.61925C13.4637 2.36901 11.768 1.66663 9.99992 1.66663C8.23181 1.66663 6.53612 2.36901 5.28587 3.61925C4.03563 4.86949 3.33325 6.56518 3.33325 8.33329C3.33325 12.4941 7.94909 16.8275 9.49909 18.1658C9.64348 18.2744 9.81925 18.3331 9.99992 18.3331C10.1806 18.3331 10.3564 18.2744 10.5008 18.1658Z" stroke="#4A2F0B" stroke-width="1.6" stroke-linecap="round" stroke-linejoin="round"/>
<path d="M10 10.8334C11.3807 10.8334 12.5 9.71409 12.5 8.33337C12.5 6.95266 11.3807 5.83337 10 5.83337C8.61929 5.83337 7.5 6.95266 7.5 8.33337C7.5 9.71409 8.61929 10.8334 10 10.8334Z" stroke="#4A2F0B" stroke-width="1.6" stroke-linecap="round" stroke-linejoin="round"/>
</svg>
