<svg width="20" height="20" viewBox="0 0 20 20" fill="none" xmlns="http://www.w3.org/2000/svg">
<path d="M2.5 5.83333V4.16667C2.5 3.72464 2.67559 3.30072 2.98816 2.98816C3.30072 2.67559 3.72464 2.5 4.16667 2.5H5.83333" stroke="currentColor" stroke-width="1.6" stroke-linecap="round" stroke-linejoin="round"/>
<path d="M14.1667 2.5H15.8334C16.2754 2.5 16.6994 2.67559 17.0119 2.98816C17.3245 3.30072 17.5001 3.72464 17.5001 4.16667V5.83333" stroke="currentColor" stroke-width="1.6" stroke-linecap="round" stroke-linejoin="round"/>
<path d="M17.5001 14.1666V15.8333C17.5001 16.2753 17.3245 16.6992 17.0119 17.0118C16.6994 17.3244 16.2754 17.5 15.8334 17.5H14.1667" stroke="currentColor" stroke-width="1.6" stroke-linecap="round" stroke-linejoin="round"/>
<path d="M5.83333 17.5H4.16667C3.72464 17.5 3.30072 17.3244 2.98816 17.0118C2.67559 16.6992 2.5 16.2753 2.5 15.8333V14.1666" stroke="currentColor" stroke-width="1.6" stroke-linecap="round" stroke-linejoin="round"/>
<path d="M5.83325 10H14.1666" stroke="currentColor" stroke-width="1.6" stroke-linecap="round" stroke-linejoin="round"/>
</svg>
