<svg width="20" height="20" viewBox="0 0 20 20" fill="none" xmlns="http://www.w3.org/2000/svg">
<g clip-path="url(#clip0_750_2025)">
<path d="M10 1V2.22449" stroke="#4A2F0B" stroke-width="1.6" stroke-linecap="round" stroke-linejoin="round"/>
<path d="M5.5 2.22461L6.1375 3.29604" stroke="#4A2F0B" stroke-width="1.6" stroke-linecap="round" stroke-linejoin="round"/>
<path d="M14.4998 2.22461L13.8623 3.29604" stroke="#4A2F0B" stroke-width="1.6" stroke-linecap="round" stroke-linejoin="round"/>
<path d="M2.2002 5.59192L3.3252 6.24243" stroke="#4A2F0B" stroke-width="1.6" stroke-linecap="round" stroke-linejoin="round"/>
<path d="M17.7998 5.59192L16.6748 6.24243" stroke="#4A2F0B" stroke-width="1.6" stroke-linecap="round" stroke-linejoin="round"/>
<path d="M1 10.1837H2.2" stroke="#4A2F0B" stroke-width="1.6" stroke-linecap="round" stroke-linejoin="round"/>
<path d="M18.9998 10.1837H17.7998" stroke="#4A2F0B" stroke-width="1.6" stroke-linecap="round" stroke-linejoin="round"/>
<path d="M4.59985 14.3928V9.95406C4.59985 6.89284 6.99985 4.67346 9.99985 4.67346C12.9999 4.67346 15.3999 6.89284 15.3999 9.95406V14.3928" stroke="#4A2F0B" stroke-width="1.6" stroke-linecap="round" stroke-linejoin="round"/>
<path d="M1.80908 17.0407C1.80908 15.9587 2.68624 15.0815 3.76826 15.0815H16.1699C17.2519 15.0815 18.1291 15.9587 18.1291 17.0407C18.1291 18.1227 17.2519 18.9999 16.1699 18.9999H3.76826C2.68624 18.9999 1.80908 18.1227 1.80908 17.0407Z" stroke="#4A2F0B" stroke-width="1.6" stroke-linecap="round" stroke-linejoin="round"/>
</g>
<defs>
<clipPath id="clip0_750_2025">
<rect width="20" height="20" fill="white"/>
</clipPath>
</defs>
</svg>
