<svg width="17" height="16" viewBox="0 0 17 16" fill="none" xmlns="http://www.w3.org/2000/svg">
<path d="M8.0332 0.916992C8.10431 0.760901 8.32632 0.760935 8.39746 0.916992L10.0508 4.5498C10.3128 5.12563 10.8577 5.52153 11.4863 5.59277L15.4521 6.04297C15.6226 6.06237 15.691 6.2728 15.5645 6.38867L12.6201 9.08398C12.1536 9.51111 11.9458 10.1517 12.0723 10.7715L12.8701 14.6826C12.904 14.8506 12.7244 14.981 12.5752 14.8965L9.10254 12.9287C8.55212 12.6169 7.87853 12.6169 7.32812 12.9287L3.85547 14.8965C3.7063 14.9809 3.5267 14.8505 3.56055 14.6826L4.35938 10.7715C4.48585 10.1517 4.27711 9.5111 3.81055 9.08398L0.866211 6.38867C0.739828 6.27282 0.8082 6.06246 0.978516 6.04297L4.94434 5.59277C5.57295 5.52153 6.11788 5.12563 6.37988 4.5498L8.0332 0.916992Z" stroke="#4A2F0B" stroke-width="1.6"/>
</svg>
