<svg width="19" height="19" viewBox="0 0 19 19" fill="none" xmlns="http://www.w3.org/2000/svg">
<path d="M9.13338 17.4667C13.7358 17.4667 17.4667 13.7358 17.4667 9.13338C17.4667 4.53101 13.7358 0.800049 9.13338 0.800049C4.53101 0.800049 0.800049 4.53101 0.800049 9.13338C0.800049 13.7358 4.53101 17.4667 9.13338 17.4667Z" stroke="#4A2F0B" stroke-width="1.6" stroke-linecap="round" stroke-linejoin="round"/>
<path d="M9.13338 14.1334C11.8948 14.1334 14.1334 11.8948 14.1334 9.13338C14.1334 6.37196 11.8948 4.13338 9.13338 4.13338C6.37196 4.13338 4.13338 6.37196 4.13338 9.13338C4.13338 11.8948 6.37196 14.1334 9.13338 14.1334Z" stroke="#4A2F0B" stroke-width="1.6" stroke-linecap="round" stroke-linejoin="round"/>
<path d="M9.13338 10.8C10.0539 10.8 10.8 10.0539 10.8 9.13338C10.8 8.21291 10.0539 7.46671 9.13338 7.46671C8.21291 7.46671 7.46671 8.21291 7.46671 9.13338C7.46671 10.0539 8.21291 10.8 9.13338 10.8Z" stroke="#4A2F0B" stroke-width="1.6" stroke-linecap="round" stroke-linejoin="round"/>
</svg>
