<svg width="19" height="19" viewBox="0 0 19 19" fill="none" xmlns="http://www.w3.org/2000/svg">
<path d="M0.800049 0.800049L17.4667 17.4667M7.80838 7.80838C7.65353 7.96323 7.4697 8.08607 7.26738 8.16987C7.06505 8.25367 6.84821 8.29681 6.62922 8.29681C6.41022 8.29681 6.19338 8.25367 5.99105 8.16987C5.78873 8.08607 5.6049 7.96323 5.45005 7.80838C5.2952 7.65353 5.17236 7.4697 5.08856 7.26738C5.00476 7.06505 4.96162 6.84821 4.96162 6.62922C4.96162 6.41022 5.00476 6.19338 5.08856 5.99106C5.17236 5.78873 5.2952 5.6049 5.45005 5.45005M10.3834 10.3834L4.13338 16.6334M14.1334 9.13338L16.6334 11.6334V3.30005C16.6334 2.85802 16.4578 2.4341 16.1452 2.12154C15.8327 1.80898 15.4087 1.63338 14.9667 1.63338H6.63338M2.12505 2.12505C1.9697 2.27883 1.84629 2.46181 1.76191 2.66346C1.67753 2.86511 1.63385 3.08146 1.63338 3.30005V14.9667C1.63338 15.4087 1.80898 15.8327 2.12154 16.1452C2.4341 16.4578 2.85802 16.6334 3.30005 16.6334H14.9667C15.425 16.6334 15.8434 16.45 16.1417 16.1417" stroke="#4A2F0B" stroke-width="1.6" stroke-linecap="round" stroke-linejoin="round"/>
</svg>
